<svg xmlns="http://www.w3.org/2000/svg" width="32" height="32" viewBox="0 0 32 32">
  <defs>
    <linearGradient id="goldGradient" x1="0%" y1="0%" x2="100%" y2="100%">
      <stop offset="0%" stop-color="#FFD700" />
      <stop offset="50%" stop-color="#D4AF37" />
      <stop offset="100%" stop-color="#B8860B" />
    </linearGradient>
    <filter id="glow" x="-20%" y="-20%" width="140%" height="140%">
      <feGaussianBlur stdDeviation="1" result="blur" />
      <feComposite in="SourceGraphic" in2="blur" operator="over" />
    </filter>
  </defs>
  <rect width="32" height="32" rx="8" fill="#121212" />
  <path d="M16,4 C9.373,4 4,9.373 4,16 C4,22.627 9.373,28 16,28 C22.627,28 28,22.627 28,16 C28,9.373 22.627,4 16,4 Z" fill="none" stroke="url(#goldGradient)" stroke-width="1.5" opacity="0.6" />
  <path d="M19.5,12 C19.5,10.07 17.93,8.5 16,8.5 C14.07,8.5 12.5,10.07 12.5,12 C12.5,13.93 14.07,15.5 16,15.5 C17.93,15.5 19.5,13.93 19.5,12 Z M12.5,20 C12.5,18.07 14.07,16.5 16,16.5 C17.93,16.5 19.5,18.07 19.5,20 C19.5,21.93 17.93,23.5 16,23.5 C14.07,23.5 12.5,21.93 12.5,20 Z" fill="url(#goldGradient)" filter="url(#glow)" />
  <text x="50%" y="50%" font-family="Arial, sans-serif" font-size="16" font-weight="bold" text-anchor="middle" dominant-baseline="central" fill="url(#goldGradient)" filter="url(#glow)">S</text>
</svg>
