<?xml version="1.0" encoding="UTF-8"?>
<svg width="400" height="200" viewBox="0 0 400 200" fill="none" xmlns="http://www.w3.org/2000/svg">
  <!-- Background -->
  <rect width="400" height="200" fill="#1E1E1E"/>
  
  <!-- Security Pattern -->
  <circle cx="200" cy="100" r="60" stroke="#D4AF37" stroke-width="2" opacity="0.3"/>
  <circle cx="200" cy="100" r="40" stroke="#D4AF37" stroke-width="2" opacity="0.5"/>
  <circle cx="200" cy="100" r="20" stroke="#D4AF37" stroke-width="2" opacity="0.7"/>
  
  <!-- Shield Icon -->
  <path d="M200 60C200 60 240 80 240 120C240 160 200 180 200 180C200 180 160 160 160 120C160 80 200 60 200 60Z" fill="#121212" stroke="#D4AF37" stroke-width="3"/>
  <path d="M200 75C200 75 225 90 225 120C225 150 200 165 200 165C200 165 175 150 175 120C175 90 200 75 200 75Z" fill="#121212" stroke="#D4AF37" stroke-width="2"/>
  <path d="M190 120L200 130L215 110" stroke="#D4AF37" stroke-width="3" stroke-linecap="round" stroke-linejoin="round"/>
  
  <!-- Lock Icons -->
  <rect x="120" y="90" width="20" height="25" rx="3" fill="#D4AF37" opacity="0.6"/>
  <rect x="115" y="90" width="30" height="15" rx="5" fill="#1E1E1E" stroke="#D4AF37" stroke-width="2"/>
  
  <rect x="260" y="90" width="20" height="25" rx="3" fill="#D4AF37" opacity="0.6"/>
  <rect x="255" y="90" width="30" height="15" rx="5" fill="#1E1E1E" stroke="#D4AF37" stroke-width="2"/>
  
  <!-- Project Name -->
  <text x="200" y="30" font-family="Arial" font-size="16" fill="#D4AF37" text-anchor="middle">SECURE ME</text>
</svg>
